<svg xmlns="http://www.w3.org/2000/svg"
 xmlns:xlink="http://www.w3.org/1999/xlink"
 width="41px" height="38px"  viewBox="0 0 41 38">
<path fill-rule="evenodd"  fill="#1a8bb3"
 d="M39.98999,36.02881 C39.98999,36.02881 1.071167,36.02881 1.071167,36.02881 C1.071167,36.02881 1.071167,7.9209595 1.071167,7.9209595 C1.071167,7.9209595 39.98999,7.9209595 39.98999,7.9209595 C39.98999,7.9209595 39.98999,36.02881 39.98999,36.02881 ZM2.9746094,33.938843 C2.9746094,33.938843 38.023438,33.938843 38.023438,33.938843 C38.023438,33.938843 38.023438,9.948669 38.023438,9.948669 C38.023438,9.948669 2.9746094,9.948669 2.9746094,9.948669 C2.9746094,9.948669 2.9746094,33.938843 2.9746094,33.938843 ZM26.980286,21.974304 C26.980286,21.974304 26.544373,21.974304 26.544373,21.974304 C24.38507,21.974304 22.628723,20.217957 22.628723,18.057983 C22.628723,18.057983 22.628723,17.623718 22.628723,17.623718 C22.628723,15.464844 24.38507,13.707642 26.544373,13.707642 C26.544373,13.707642 26.980286,13.707642 26.980286,13.707642 C29.139221,13.707642 30.895996,15.464844 30.895996,17.623718 C30.895996,17.623718 30.895996,18.057983 30.895996,18.057983 C30.895996,20.217957 29.139221,21.974304 26.980286,21.974304 ZM26.544373,15.360962 C25.296936,15.360962 24.282104,16.37561 24.282104,17.623718 C24.282104,17.623718 24.282104,18.057983 24.282104,18.057983 C24.282104,19.30719 25.296936,20.322388 26.544373,20.322388 C26.544373,20.322388 26.980286,20.322388 26.980286,20.322388 C28.227722,20.322388 29.242554,19.30719 29.242554,18.057983 C29.242554,18.057983 29.242554,17.623718 29.242554,17.623718 C29.242554,16.37561 28.227722,15.360962 26.980286,15.360962 C26.980286,15.360962 26.544373,15.360962 26.544373,15.360962 ZM2.4467773,31.73346 C2.4467773,31.73346 1.2672119,30.575378 1.2672119,30.575378 C1.2672119,30.575378 13.247559,18.375854 13.247559,18.375854 C13.247559,18.375854 14.427246,19.53418 14.427246,19.53418 C14.427246,19.53418 2.4467773,31.73346 2.4467773,31.73346 ZM24.695496,30.24231 C24.695496,30.24231 13.053467,18.600708 13.053467,18.600708 C13.053467,18.600708 14.222473,17.431702 14.222473,17.431702 C14.222473,17.431702 25.864624,29.074036 25.864624,29.074036 C25.864624,29.074036 24.695496,30.24231 24.695496,30.24231 ZM25.402832,30.949585 C25.402832,30.949585 24.220764,29.79309 24.220764,29.79309 C24.220764,29.79309 31.651733,22.192505 31.651733,22.192505 C31.651733,22.192505 32.83368,23.347961 32.83368,23.347961 C32.83368,23.347961 25.402832,30.949585 25.402832,30.949585 ZM38.698242,29.940796 C38.698242,29.940796 31.342407,22.518677 31.342407,22.518677 C31.342407,22.518677 32.51642,21.353638 32.51642,21.353638 C32.51642,21.353638 39.872192,28.777588 39.872192,28.777588 C39.872192,28.777588 38.698242,29.940796 38.698242,29.940796 ZM3.0371094,6.95459 C3.0371094,6.95459 3.0371094,5.0515747 3.0371094,5.0515747 C3.0371094,5.0515747 37.961548,5.0515747 37.961548,5.0515747 C37.961548,5.0515747 37.961548,6.95459 37.961548,6.95459 C37.961548,6.95459 3.0371094,6.95459 3.0371094,6.95459 ZM5.017334,3.960266 C5.017334,3.960266 5.017334,1.9937134 5.017334,1.9937134 C5.017334,1.9937134 35.981445,1.9937134 35.981445,1.9937134 C35.981445,1.9937134 35.981445,3.960266 35.981445,3.960266 C35.981445,3.960266 5.017334,3.960266 5.017334,3.960266 Z"/>
</svg>