<svg xmlns="http://www.w3.org/2000/svg"
 xmlns:xlink="http://www.w3.org/1999/xlink"
 width="44px" height="41px"  viewBox="0 0 44 41">
<path fill-rule="evenodd"  fill="#1a8bb3"
 d="M7.88739,39.154236 C5.8358765,39.154236 4.166992,37.467834 4.166992,35.39441 C4.166992,33.32129 5.8358765,31.635132 7.88739,31.635132 C9.938782,31.635132 11.607605,33.32129 11.607605,35.39441 C11.607605,37.467834 9.938782,39.154236 7.88739,39.154236 ZM7.88739,33.305786 C6.7478027,33.305786 5.8205566,34.242737 5.8205566,35.39441 C5.8205566,36.54663 6.7478027,37.48358 7.88739,37.48358 C9.026978,37.48358 9.954224,36.54663 9.954224,35.39441 C9.954224,34.242737 9.026978,33.305786 7.88739,33.305786 ZM22.768494,24.116089 C20.717102,24.116089 19.048279,22.430237 19.048279,20.356262 C19.048279,18.283936 20.717102,16.596985 22.768494,16.596985 C24.820007,16.596985 26.48877,18.283936 26.48877,20.356262 C26.48877,22.430237 24.820007,24.116089 22.768494,24.116089 ZM22.768494,18.268188 C21.628967,18.268188 20.701721,19.205383 20.701721,20.356262 C20.701721,21.50824 21.628967,22.444397 22.768494,22.444397 C23.90857,22.444397 24.835388,21.50824 24.835388,20.356262 C24.835388,19.205383 23.90857,18.268188 22.768494,18.268188 ZM8.714172,33.097168 C8.714172,33.097168 7.060669,33.097168 7.060669,33.097168 C7.060669,25.578125 13.054382,19.715515 20.495056,19.715515 C20.495056,19.715515 20.495056,21.38617 20.495056,21.38617 C13.881165,21.38617 8.714172,26.413818 8.714172,33.097168 ZM38.06305,8.660461 C36.011597,8.660461 34.342834,6.9746094 34.342834,4.9014893 C34.342834,2.8272705 36.011597,1.1419678 38.06305,1.1419678 C40.114502,1.1419678 41.783264,2.8272705 41.783264,4.9014893 C41.783264,6.9746094 40.114502,8.660461 38.06305,8.660461 ZM38.06305,2.812317 C36.923035,2.812317 35.996216,3.7492676 35.996216,4.9014893 C35.996216,6.0531616 36.923035,6.9901123 38.06305,6.9901123 C39.203064,6.9901123 40.129883,6.0531616 40.129883,4.9014893 C40.129883,3.7492676 39.203064,2.812317 38.06305,2.812317 ZM25.455444,20.774292 C25.455444,20.774292 25.455444,19.103394 25.455444,19.103394 C32.069275,19.103394 37.04419,13.882324 37.04419,7.1989746 C37.04419,7.1989746 38.69757,7.1989746 38.69757,7.1989746 C38.69757,14.717529 32.895935,20.774292 25.455444,20.774292 ZM37.029602,21.944397 C37.029602,21.944397 25.455444,21.944397 25.455444,21.944397 C25.455444,21.944397 25.455444,19.969543 25.455444,19.969543 C25.455444,19.969543 37.029602,19.969543 37.029602,19.969543 C37.029602,19.969543 37.029602,21.944397 37.029602,21.944397 ZM20.495056,21.944397 C20.495056,21.944397 8.094116,21.944397 8.094116,21.944397 C8.094116,21.944397 8.094116,19.969543 8.094116,19.969543 C8.094116,19.969543 20.495056,19.969543 20.495056,19.969543 C20.495056,19.969543 20.495056,21.944397 20.495056,21.944397 ZM42.945312,23.907776 C42.945312,23.907776 36.010193,23.907776 36.010193,23.907776 C36.010193,23.907776 36.010193,16.97522 36.010193,16.97522 C36.010193,16.97522 42.945312,16.97522 42.945312,16.97522 C42.945312,16.97522 42.945312,23.907776 42.945312,23.907776 ZM37.984924,22.000183 C37.984924,22.000183 41.03485,22.000183 41.03485,22.000183 C41.03485,22.000183 41.03485,19.013916 41.03485,19.013916 C41.03485,19.013916 37.984924,19.013916 37.984924,19.013916 C37.984924,19.013916 37.984924,22.000183 37.984924,22.000183 ZM8.985046,23.907776 C8.985046,23.907776 1.9856567,23.907776 1.9856567,23.907776 C1.9856567,23.907776 1.9856567,16.97522 1.9856567,16.97522 C1.9856567,16.97522 8.985046,16.97522 8.985046,16.97522 C8.985046,16.97522 8.985046,23.907776 8.985046,23.907776 ZM3.9603882,22.064331 C3.9603882,22.064331 7.074524,22.064331 7.074524,22.064331 C7.074524,22.064331 7.074524,19.013916 7.074524,19.013916 C7.074524,19.013916 3.9603882,19.013916 3.9603882,19.013916 C3.9603882,19.013916 3.9603882,22.064331 3.9603882,22.064331 Z"/>
</svg>