<svg xmlns="http://www.w3.org/2000/svg"
 xmlns:xlink="http://www.w3.org/1999/xlink"
 width="27px" height="75px"  viewBox="0 0 27 75">
<path fill-rule="evenodd"  fill="#ffffff"
 d="M13.999817,43.9989 C7.9248047,43.9989 1.9998779,39.074036 1.9998779,32.997498 C1.9998779,32.997498 1.9998779,12.998169 1.9998779,12.998169 C1.9998779,6.9229736 7.9248047,1.9986572 13.999817,1.9986572 C20.075134,1.9986572 25.999817,6.9229736 25.999817,12.998169 C25.999817,12.998169 25.999817,32.997498 25.999817,32.997498 C25.999817,39.074036 20.075134,43.9989 13.999817,43.9989 ZM13.999817,41.998352 C9.029236,41.998352 3.999817,37.96936 3.999817,32.997498 C3.999817,32.997498 3.999817,12.998169 3.999817,12.998169 C3.999817,8.026855 9.029236,3.9975586 13.999817,3.9975586 C18.97052,3.9975586 23.999817,8.026855 23.999817,12.998169 C23.999817,12.998169 23.999817,32.997498 23.999817,32.997498 C23.999817,37.96936 18.97052,41.998352 13.999817,41.998352 ZM13.999817,73.99768 C13.447632,73.99768 12.999878,73.550354 12.999878,72.998535 C12.999878,72.998535 12.999878,42.997803 12.999878,42.997803 C12.999878,42.44629 13.447632,41.998352 13.999817,41.998352 C14.552185,41.998352 14.999939,42.44629 14.999939,42.997803 C14.999939,42.997803 14.999939,72.998535 14.999939,72.998535 C14.999939,73.550354 14.552185,73.99768 13.999817,73.99768 ZM13.999817,32.997498 C12.895264,32.997498 11.999878,32.102478 11.999878,30.998352 C11.999878,29.89392 12.895264,28.997559 13.999817,28.997559 C15.104431,28.997559 15.999878,29.89392 15.999878,30.998352 C15.999878,32.102478 15.104431,32.997498 13.999817,32.997498 ZM14.0,24.999268 C15.104431,24.999268 15.999939,25.894836 15.999939,26.999207 C15.999939,26.999207 15.999939,30.99939 15.999939,30.99939 C15.999939,32.103577 15.104431,32.99939 14.0,32.99939 C12.895386,32.99939 11.999939,32.103577 11.999939,30.99939 C11.999939,30.99939 11.999939,26.999207 11.999939,26.999207 C11.999939,25.894836 12.895386,24.999268 14.0,24.999268 Z"/>
</svg>