<svg xmlns="http://www.w3.org/2000/svg"
 xmlns:xlink="http://www.w3.org/1999/xlink"
 width="51px" height="60px"  viewBox="0 0 51 60">
<path fill-rule="evenodd"  fill="#5c5b5b"
 d="M48.89258,25.444336 C48.863342,25.462646 48.836853,25.472656 48.807617,25.489258 C48.793884,25.255615 48.706055,25.024902 48.52649,24.845215 C48.52649,24.845215 45.0,21.331543 45.0,21.331543 C45.0,21.331543 45.0,7.0009766 45.0,7.0009766 C45.0,7.0009766 31.0,7.0009766 31.0,7.0009766 C31.0,7.0009766 25.912231,2.3127441 25.912231,2.3127441 C25.455872,1.8554688 24.459534,1.8679199 24.016052,2.3127441 C24.016052,2.3127441 18.999878,7.0009766 18.999878,7.0009766 C18.999878,7.0009766 5.000122,7.0009766 5.000122,7.0009766 C5.000122,7.0009766 5.000122,21.259033 5.000122,21.259033 C5.000122,21.259033 1.4013672,24.845215 1.4013672,24.845215 C1.1289673,25.11621 1.059021,25.501709 1.1659546,25.844238 C1.1113281,25.78833 1.0488281,25.740234 1.000061,25.678955 C1.000061,25.678955 1.000061,54.601562 1.000061,54.601562 C1.000061,57.021973 2.975586,58.990723 5.404297,58.990723 C5.404297,58.990723 44.595764,58.990723 44.595764,58.990723 C47.024353,58.990723 49.00006,57.021973 49.00006,54.601562 C49.00006,54.601562 49.00006,25.366455 49.00006,25.366455 C48.961853,25.391846 48.932556,25.420898 48.89258,25.444336 ZM45.0,24.149658 C45.0,24.149658 47.0,26.142578 47.0,26.142578 C47.0,26.142578 47.0,26.468506 47.0,26.468506 C47.0,26.468506 45.0,28.463135 45.0,28.463135 C45.0,28.463135 45.0,24.149658 45.0,24.149658 ZM33.38568,42.853516 C33.38568,42.853516 47.0,29.287354 47.0,29.287354 C47.0,29.287354 47.0,54.601562 47.0,54.601562 C47.0,55.114746 46.834045,55.588867 46.557617,55.979004 C46.557617,55.979004 33.38568,42.853516 33.38568,42.853516 ZM24.96399,4.1845703 C24.96399,4.1845703 27.999939,7.0009766 27.999939,7.0009766 C27.999939,7.0009766 21.999939,7.0009766 21.999939,7.0009766 C21.999939,7.0009766 24.96399,4.1845703 24.96399,4.1845703 ZM7.000061,9.000244 C7.000061,9.000244 42.99994,9.000244 42.99994,9.000244 C42.99994,9.000244 42.99994,30.455322 42.99994,30.455322 C42.99994,30.455322 24.96399,48.428223 24.96399,48.428223 C24.96399,48.428223 7.000061,30.5271 7.000061,30.5271 C7.000061,30.5271 7.000061,9.000244 7.000061,9.000244 ZM16.557556,42.86914 C16.557556,42.86914 3.4234009,55.9563 3.4234009,55.9563 C3.1572266,55.56909 3.0,55.10376 3.0,54.601562 C3.0,54.601562 3.0,29.358887 3.0,29.358887 C3.0,29.358887 16.557556,42.86914 16.557556,42.86914 ZM5.000122,28.534668 C5.000122,28.534668 3.0,26.541504 3.0,26.541504 C3.0,26.541504 3.0,26.110352 3.0,26.110352 C2.9990234,26.110352 2.9980469,26.110352 2.9980469,26.110352 C2.9980469,26.110352 2.8886719,26.12915 2.8886719,26.12915 C2.8886719,26.12915 5.000122,24.076416 5.000122,24.076416 C5.000122,24.076416 5.000122,28.534668 5.000122,28.534668 ZM5.404297,56.998535 C5.3428345,56.998535 5.284668,56.984375 5.223633,56.979492 C5.223633,56.979492 17.971619,44.277588 17.971619,44.277588 C17.971619,44.277588 24.016052,50.30078 24.016052,50.30078 C24.211426,50.49585 24.467285,50.591797 24.723083,50.591797 C24.805176,50.591797 24.884277,50.565186 24.96399,50.546875 C25.043884,50.565186 25.123047,50.591797 25.205078,50.591797 C25.460999,50.591797 25.716797,50.49585 25.912231,50.30078 C25.912231,50.30078 31.971802,44.262695 31.971802,44.262695 C31.971802,44.262695 44.73828,56.983643 44.73828,56.983643 C44.69037,56.986572 44.64447,56.998535 44.595764,56.998535 C44.595764,56.998535 5.404297,56.998535 5.404297,56.998535 ZM29.000061,14.992676 C29.000061,14.992676 21.0,14.992676 21.0,14.992676 C20.447754,14.992676 20.0,14.546387 20.0,13.996094 C20.0,13.446045 20.447754,12.999756 21.0,12.999756 C21.0,12.999756 29.000061,12.999756 29.000061,12.999756 C29.552673,12.999756 30.000061,13.446045 30.000061,13.996094 C30.000061,14.546387 29.552673,14.992676 29.000061,14.992676 ZM36.0,21.998291 C36.0,21.998291 14.0,21.998291 14.0,21.998291 C13.447815,21.998291 13.0,21.55127 13.0,21.002441 C13.0,20.452148 13.447815,20.00586 14.0,20.00586 C14.0,20.00586 36.0,20.00586 36.0,20.00586 C36.552795,20.00586 37.0,20.452148 37.0,21.002441 C37.0,21.55127 36.552795,21.998291 36.0,21.998291 ZM36.0,29.006348 C36.0,29.006348 14.0,29.006348 14.0,29.006348 C13.447815,29.006348 13.0,28.559082 13.0,28.008057 C13.0,27.459473 13.447815,27.012451 14.0,27.012451 C14.0,27.012451 36.0,27.012451 36.0,27.012451 C36.552795,27.012451 37.0,27.459473 37.0,28.008057 C37.0,28.559082 36.552795,29.006348 36.0,29.006348 ZM34.00006,36.014893 C34.00006,36.014893 15.999939,36.014893 15.999939,36.014893 C15.447754,36.014893 15.0,35.631348 15.0,35.080566 C15.0,34.530273 15.447754,33.99048 15.999939,33.99048 C15.999939,33.99048 34.00006,33.99048 34.00006,33.99048 C34.552673,33.99048 35.0,34.44287 35.0,35.003418 C35.0,35.561523 34.552673,36.014893 34.00006,36.014893 Z"/>
</svg>