<svg xmlns="http://www.w3.org/2000/svg"
 xmlns:xlink="http://www.w3.org/1999/xlink"
 width="51px" height="44px"  viewBox="0 0 51 44">
<path fill-rule="evenodd"  fill="#1a8bb3"
 d="M41.33789,29.282104 C37.45656,29.282104 34.29825,26.12915 34.29825,22.25586 C34.29825,18.379333 37.45656,15.226868 41.33789,15.226868 C45.21913,15.226868 48.37744,18.379333 48.37744,22.25586 C48.37744,26.12915 45.21913,29.282104 41.33789,29.282104 ZM41.33789,16.88092 C38.369675,16.88092 35.954697,19.291138 35.954697,22.25586 C35.954697,25.217285 38.369675,27.62909 41.33789,27.62909 C44.3062,27.62909 46.721085,25.217285 46.721085,22.25586 C46.721085,19.291138 44.3062,16.88092 41.33789,16.88092 ZM44.236557,23.494568 C42.40944,23.494568 40.92375,22.011719 40.92375,20.188599 C40.92375,18.364075 42.40944,16.88092 44.236557,16.88092 C46.063583,16.88092 47.549255,18.364075 47.549255,20.188599 C47.549255,22.011719 46.063583,23.494568 44.236557,23.494568 ZM44.236557,18.53424 C43.32344,18.53424 42.5802,19.275635 42.5802,20.188599 C42.5802,21.09961 43.32344,21.841858 44.236557,21.841858 C45.149582,21.841858 45.892914,21.09961 45.892914,20.188599 C45.892914,19.275635 45.149582,18.53424 44.236557,18.53424 ZM37.611053,25.974792 C36.240982,25.974792 35.126526,24.86261 35.126526,23.494568 C35.126526,22.12738 36.240982,21.01416 37.611053,21.01416 C38.981125,21.01416 40.09558,22.12738 40.09558,23.494568 C40.09558,24.86261 38.981125,25.974792 37.611053,25.974792 ZM37.611053,22.668457 C37.1541,22.668457 36.782867,23.03894 36.782867,23.494568 C36.782867,23.95105 37.1541,24.321228 37.611053,24.321228 C38.06801,24.321228 38.439316,23.95105 38.439316,23.494568 C38.439316,23.03894 38.06801,22.668457 37.611053,22.668457 ZM38.971466,30.48352 C35.872177,36.773438 29.4861,40.85614 22.289642,40.85614 C12.014648,40.85614 3.6554413,32.51178 3.6554413,22.25586 C3.6554413,11.997253 12.014648,3.652588 22.289642,3.652588 C29.41655,3.652588 35.793762,7.687744 38.918808,13.907959 C39.43808,13.772034 39.99858,13.690857 40.61325,13.690857 C40.631042,13.690857 40.64633,13.692993 40.664124,13.692993 C37.36357,6.6188965 30.251251,1.9998779 22.289642,1.9998779 C11.10144,1.9998779 1.9990997,11.086182 1.9990997,22.25586 C1.9990997,33.424133 11.10144,42.50995 22.289642,42.50995 C30.36203,42.50995 37.494644,37.793945 40.745117,30.589233 C40.59868,30.598328 40.454727,30.61145 40.302643,30.61145 C39.8304,30.61145 39.387924,30.56604 38.971466,30.48352 ZM36.558823,15.371887 C36.28711,15.371887 36.02104,15.238647 35.86252,14.994751 C35.86252,14.994751 33.620544,11.53064 33.620544,11.53064 C33.37227,11.148132 33.482147,10.635376 33.866425,10.387512 C34.251495,10.13855 34.76335,10.248901 35.011627,10.633728 C35.011627,10.633728 37.2536,14.097351 37.2536,14.097351 C37.501892,14.480347 37.391922,14.991577 37.007736,15.239441 C36.86862,15.329712 36.71251,15.371887 36.558823,15.371887 ZM43.22322,12.742432 C43.03636,12.742432 42.847794,12.680176 42.69339,12.551697 C42.342377,12.257629 42.294632,11.736267 42.588333,11.386414 C42.588333,11.386414 47.5549,5.447693 47.5549,5.447693 C47.846893,5.0977783 48.370102,5.048401 48.721115,5.3424683 C49.07222,5.6346436 49.119965,6.156006 48.826355,6.507202 C48.826355,6.507202 43.85962,12.446472 43.85962,12.446472 C43.696274,12.641968 43.460953,12.742432 43.22322,12.742432 ZM48.190582,38.37085 C47.952927,38.37085 47.71753,38.270203 47.554092,38.073853 C47.554092,38.073853 42.58745,32.135437 42.58745,32.135437 C42.294632,31.786072 42.341568,31.26416 42.69249,30.971191 C43.043594,30.677917 43.56601,30.724915 43.85881,31.077515 C43.85881,31.077515 48.825455,37.014893 48.825455,37.014893 C49.119064,37.36554 49.07141,37.887695 48.720398,38.178284 C48.565903,38.308655 48.37744,38.37085 48.190582,38.37085 ZM33.113434,18.25299 C32.915314,18.25299 32.716293,18.181946 32.55777,18.038269 C32.55777,18.038269 29.448822,15.231689 29.448822,15.231689 C29.110062,14.925049 29.083328,14.402649 29.389908,14.063965 C29.697998,13.725037 30.22049,13.700745 30.56015,14.005981 C30.56015,14.005981 33.669006,16.812317 33.669006,16.812317 C34.00795,17.118408 34.03459,17.641907 33.728104,17.979492 C33.56395,18.160034 33.339096,18.25299 33.113434,18.25299 ZM31.81372,22.668457 C31.81372,22.668457 27.672836,22.668457 27.672836,22.668457 C27.215073,22.668457 26.844666,22.298828 26.844666,21.841858 C26.844666,21.385681 27.215073,21.01416 27.672836,21.01416 C27.672836,21.01416 31.81372,21.01416 31.81372,21.01416 C32.271484,21.01416 32.641907,21.385681 32.641907,21.841858 C32.641907,22.298828 32.271484,22.668457 31.81372,22.668457 ZM29.783737,29.746887 C29.540375,29.746887 29.300049,29.63977 29.135895,29.436218 C28.850418,29.079956 28.90863,28.558838 29.26535,28.273865 C29.26535,28.273865 32.498764,25.691101 32.498764,25.691101 C32.856293,25.406128 33.376297,25.465942 33.663467,25.820374 C33.948944,26.178589 33.890656,26.697754 33.533997,26.98407 C33.533997,26.98407 30.300507,29.565796 30.300507,29.565796 C30.14772,29.687317 29.964874,29.746887 29.783737,29.746887 ZM34.297455,33.415833 C34.172913,33.415833 34.046753,33.387817 33.92784,33.328247 C33.518723,33.123108 33.35286,32.627136 33.557526,32.21875 C33.557526,32.21875 35.213867,28.911682 35.213867,28.911682 C35.41844,28.503845 35.915802,28.338257 36.325104,28.542847 C36.73442,28.746643 36.900177,29.242859 36.695435,29.651794 C36.695435,29.651794 35.03917,32.95862 35.03917,32.95862 C34.893524,33.2489 34.60161,33.415833 34.297455,33.415833 ZM25.259842,10.11853 C24.353699,10.11853 23.42154,9.692505 22.732925,9.3776245 C22.732925,9.3776245 22.420624,9.236328 22.420624,9.236328 C21.447708,8.809265 20.70079,8.345337 20.137527,7.8183594 C20.137527,7.8183594 19.911514,7.600403 19.911514,7.600403 C19.903381,7.592163 19.896133,7.5862427 19.88881,7.5793457 C19.841507,7.588379 19.787231,7.602051 19.723846,7.615906 C19.723846,7.615906 19.591965,7.645813 19.591965,7.645813 C16.52353,8.321289 13.949951,7.6829834 12.348663,5.8502197 C12.348663,5.8502197 13.596436,4.7631226 13.596436,4.7631226 C15.195923,6.5929565 17.815903,6.342163 19.23613,6.0307617 C19.23613,6.0307617 19.363983,6.0021973 19.363983,6.0021973 C20.185638,5.8184204 20.488998,5.851013 21.070755,6.4196167 C21.070755,6.4196167 21.269424,6.611145 21.269424,6.611145 C21.694824,7.008545 22.2901,7.371521 23.089127,7.7249146 C23.089127,7.7249146 23.422348,7.874695 23.422348,7.874695 C24.06456,8.168274 25.13977,8.657532 25.594315,8.39209 C25.752823,8.298889 25.842941,8.074524 25.977234,7.7179565 C26.168564,7.210449 26.429733,6.51416 27.208633,6.180847 C28.192917,5.7598877 29.372116,6.1554565 30.234268,6.442871 C30.413788,6.5029297 30.58197,6.5601196 30.732346,6.6030884 C30.902313,6.651184 31.47165,6.7908936 31.684448,6.550232 C31.712692,6.5147095 31.760345,6.375305 31.791107,6.283386 C31.875946,6.0336914 31.981094,5.723877 32.231964,5.4450073 C32.231964,5.4450073 33.46605,6.546753 33.46605,6.546753 C33.438614,6.581726 33.391754,6.722534 33.360107,6.8132935 C33.27597,7.0614624 33.170837,7.369934 32.923355,7.647705 C32.328888,8.315674 31.390747,8.510132 30.277893,8.193115 C30.105606,8.144226 29.913116,8.079834 29.708542,8.011475 C29.13179,7.8186646 28.263199,7.5285645 27.862122,7.7000732 C27.744812,7.749756 27.667206,7.9295044 27.528091,8.298889 C27.350174,8.7724 27.105911,9.420654 26.435455,9.815918 C26.065033,10.0338745 25.665024,10.11853 25.259842,10.11853 ZM12.509064,39.355347 C12.509064,39.355347 11.917999,37.80945 11.917999,37.80945 C12.446381,37.608887 13.195267,37.352722 13.762375,37.27472 C14.043823,37.236023 14.350754,37.234924 14.675476,37.23413 C15.022385,37.2323 15.745148,37.229614 15.90509,37.099 C15.871567,36.908325 15.50795,36.33728 15.312775,36.03064 C15.102127,35.69922 14.902756,35.387512 14.784195,35.095825 C14.62854,34.712036 14.501144,34.332214 14.383484,33.901184 C14.114899,32.91559 13.963272,31.98291 13.875107,30.783691 C13.849274,30.426086 13.769974,30.060669 13.686279,29.67743 C13.573547,29.159546 13.4570465,28.62561 13.451324,28.035095 C13.446136,27.48059 13.486099,26.935486 13.524185,26.408264 C13.5564575,25.963562 13.593658,25.516724 13.593658,25.068298 C13.593658,25.068298 13.593658,24.790527 13.593658,24.790527 C13.593658,24.171387 13.59285,23.471375 13.754684,22.85785 C13.921249,22.224304 14.281204,21.819946 14.570694,21.49408 C14.719116,21.328491 14.858582,21.171448 14.96463,20.995178 C15.303482,20.433228 15.362839,18.930847 14.949158,17.978394 C14.858582,17.77063 14.664932,17.411377 14.3867035,17.352905 C13.675293,17.202759 12.764236,17.216125 11.883575,17.228455 C11.412491,17.235657 10.952225,17.242554 10.533707,17.226562 C9.141724,17.171814 7.3597565,16.903381 5.9208374,15.308594 C5.9208374,15.308594 5.6822968,15.051147 5.6822968,15.051147 C5.15329,14.487305 4.4954224,13.7854 4.3016815,13.017761 C4.3016815,13.017761 5.907959,12.61499 5.907959,12.61499 C5.996933,12.966736 6.5569763,13.564758 6.891449,13.921082 C6.891449,13.921082 7.1517944,14.201233 7.1517944,14.201233 C7.9621887,15.100525 8.99295,15.510498 10.599243,15.5737915 C10.991028,15.590637 11.41893,15.582642 11.858093,15.575684 C12.831467,15.561279 13.838272,15.545227 14.731995,15.735657 C15.258957,15.84729 15.987625,16.213196 16.468536,17.320862 C17.069,18.702515 17.030548,20.776672 16.383957,21.84851 C16.198792,22.154846 15.991379,22.38855 15.80809,22.594238 C15.554169,22.878418 15.419174,23.03894 15.356857,23.277954 C15.249207,23.685852 15.250015,24.272095 15.250015,24.790527 C15.250015,24.790527 15.250015,25.081604 15.250015,25.081604 C15.250015,25.56427 15.211212,26.045837 15.176422,26.5271 C15.139236,27.04364 15.103653,27.531372 15.108124,28.018555 C15.112152,28.439453 15.206024,28.869751 15.305084,29.326172 C15.397629,29.749817 15.4926605,30.188354 15.527527,30.664062 C15.6067505,31.751343 15.742554,32.589478 15.981628,33.465515 C16.081497,33.83252 16.188599,34.15326 16.31932,34.47406 C16.381104,34.625793 16.548553,34.8891 16.710388,35.14258 C17.133286,35.806274 17.57048,36.491882 17.538116,37.18103 C17.458008,38.87567 15.5828705,38.88318 14.681915,38.88611 C14.426392,38.887146 14.183746,38.88501 13.987579,38.913574 C13.671707,38.956055 13.132767,39.11737 12.509064,39.355347 ZM7.1542053,35.209595 C6.8865204,34.462036 7.2767944,33.91986 7.4861755,33.62848 C7.5255127,33.57373 7.5848846,33.489563 7.598648,33.459106 C7.572815,33.45111 7.445404,33.306335 7.3608246,33.209106 C7.048355,32.850708 6.466049,32.18268 6.8606873,31.174988 C7.0030212,30.810669 7.1756744,30.562805 7.314331,30.364075 C7.5012054,30.098633 7.545273,30.03479 7.517746,29.73352 C7.483856,29.363586 7.279999,28.96991 7.0639954,28.55243 C6.9525146,28.338257 6.8419952,28.122986 6.747055,27.904724 C6.5512543,27.456055 6.4165955,27.173462 6.197113,27.04956 C5.8420715,26.852661 5.311447,26.815552 4.7501526,26.775757 C4.2617188,26.740784 3.7569275,26.706055 3.2752838,26.559937 C3.2752838,26.559937 3.7598724,24.977722 3.7598724,24.977722 C4.061081,25.069336 4.4525146,25.096558 4.866638,25.12622 C5.5507812,25.175354 6.326477,25.229614 7.0042725,25.60675 C7.7289124,26.01056 8.0269165,26.694336 8.266342,27.245605 C8.346359,27.429626 8.4409485,27.611206 8.535187,27.79309 C8.801804,28.307251 9.103729,28.890015 9.167297,29.583923 C9.249817,30.485657 8.916504,30.96344 8.6731415,31.311218 C8.566391,31.46399 8.474121,31.596191 8.402954,31.776733 C8.400986,31.883545 8.527145,32.02777 8.610382,32.12451 C8.882629,32.435364 9.337524,32.95807 9.227112,33.73767 C9.17337,34.11725 8.975967,34.39258 8.831665,34.5932 C8.789551,34.651672 8.725723,34.739014 8.711945,34.773743 C8.723206,34.74646 8.726425,34.687744 8.714355,34.653015 C8.714355,34.653015 7.1542053,35.209595 7.1542053,35.209595 ZM21.73845,41.866028 C20.938263,40.667603 20.635712,37.989502 21.436798,36.690063 C22.067566,35.665833 23.826279,34.71869 25.356491,34.579285 C26.352127,34.48584 27.159286,34.74701 27.683395,35.32794 C28.184784,35.883728 28.228409,36.596863 28.267303,37.22638 C28.296371,37.6922 28.323105,38.13263 28.52855,38.318542 C28.640137,38.418396 28.74849,38.461426 29.080017,38.535645 C29.39473,38.604553 29.681015,38.715942 29.934204,38.81476 C30.150131,38.898132 30.353882,38.976624 30.526978,39.012146 C30.526978,39.012146 30.201813,40.633118 30.201813,40.633118 C29.887985,40.569824 29.606628,40.461914 29.334824,40.35614 C29.117294,40.27124 28.91185,40.192932 28.719437,40.148865 C28.276962,40.0506 27.845123,39.92987 27.41893,39.545532 C26.711182,38.90851 26.657806,38.030884 26.614166,37.3255 C26.59317,36.98468 26.56723,36.561646 26.452438,36.433716 C26.296326,36.26117 25.94899,36.18341 25.506958,36.227234 C24.427277,36.32367 23.169144,37.034607 22.847733,37.556274 C22.424652,38.242126 22.650757,40.250916 23.116577,40.94879 C23.116577,40.94879 21.73845,41.866028 21.73845,41.866028 ZM40.82022,10.267578 C42.422394,10.267578 42.422394,7.78656 40.82022,7.78656 C39.21805,7.78656 39.21805,10.267578 40.82022,10.267578 C40.82022,10.267578 40.82022,10.267578 40.82022,10.267578 ZM40.71678,36.928894 C42.318954,36.928894 42.318954,34.44867 40.71678,34.44867 C39.114517,34.44867 39.114517,36.928894 40.71678,36.928894 C40.71678,36.928894 40.71678,36.928894 40.71678,36.928894 ZM43.92595,39.925842 C45.528122,39.925842 45.528122,37.44702 43.92595,37.44702 C42.3237,37.44702 42.3237,39.925842 43.92595,39.925842 C43.92595,39.925842 43.92595,39.925842 43.92595,39.925842 ZM38.542755,41.99231 C40.144928,41.99231 40.144928,39.51239 38.542755,39.51239 C36.940582,39.51239 36.940582,41.99231 38.542755,41.99231 C38.542755,41.99231 38.542755,41.99231 38.542755,41.99231 ZM46.099976,15.125122 C47.70215,15.125122 47.70215,12.644409 46.099976,12.644409 C44.49771,12.644409 44.49771,15.125122 46.099976,15.125122 C46.099976,15.125122 46.099976,15.125122 46.099976,15.125122 ZM43.615356,7.477051 C45.21753,7.477051 45.21753,4.996338 43.615356,4.996338 C42.013184,4.996338 42.013184,7.477051 43.615356,7.477051 C43.615356,7.477051 43.615356,7.477051 43.615356,7.477051 Z"/>
</svg>